<svg width="18" height="24" viewBox="0 0 18 24" fill="none" xmlns="http://www.w3.org/2000/svg">
<path d="M3.49964 2.25L2.29964 11.25H9.64027C9.98714 11.25 10.3153 11.4094 10.5262 11.6813C10.7371 11.9531 10.8168 12.3094 10.7325 12.6469L9.65433 16.95L15.0215 8.99531H8.14027C7.76995 8.99531 7.42308 8.8125 7.21214 8.50781C7.0012 8.20312 6.95902 7.80938 7.09027 7.46719L9.11995 2.25H3.49964ZM1.31527 1.62656C1.43714 0.69375 2.23402 0 3.17152 0H9.66839C10.9856 0 11.895 1.32656 11.4168 2.55469L9.78558 6.75H15.7293C17.234 6.75 18.1246 8.42812 17.2856 9.675L7.94808 23.5031C7.64339 23.9578 7.05745 24.1219 6.55589 23.9016C6.05433 23.6813 5.79183 23.1328 5.92308 22.6031L8.19652 13.5H1.86839C0.738704 13.5 -0.133171 12.5016 0.016829 11.3766L1.31527 1.62656Z" fill="#0F8A8D"/>
</svg>
