<svg width="30" height="40" viewBox="0 0 30 40" fill="none" xmlns="http://www.w3.org/2000/svg">
<g clip-path="url(#clip0_2086_4244)">
<path opacity="0.4" d="M0 5V37.5C0 38.3984 0.484375 39.2344 1.26563 39.6719C2.04688 40.1094 3.00781 40.1016 3.78125 39.6406L15 32.9141L26.2109 39.6406C26.9844 40.1016 27.9453 40.1172 28.7266 39.6719C29.5078 39.2266 30 38.3984 30 37.5V5C30 2.24219 27.7578 0 25 0H22.5V25.1641C22.5 26.1641 21.3906 26.7578 20.5547 26.2031L15 22.5L9.44531 26.2031C8.61719 26.7578 7.5 26.1641 7.5 25.1641V0H5C2.24219 0 0 2.24219 0 5Z" fill="#0F8A8D"/>
<path d="M15 22.5L9.44531 26.2031C8.61719 26.7578 7.5 26.1641 7.5 25.1641V0H22.5V25.1641C22.5 26.1641 21.3906 26.7578 20.5547 26.2031L15 22.5Z" fill="#0F8A8D"/>
</g>
<defs>
<clipPath id="clip0_2086_4244">
<rect width="30" height="40" fill="white"/>
</clipPath>
</defs>
</svg>
