<svg width="40" height="40" viewBox="0 0 40 40" fill="none" xmlns="http://www.w3.org/2000/svg">
<path opacity="0.4" d="M8 16C8 19.2 9.25 22.1063 11.2937 24.2563C12.7687 25.8125 14 27.7125 14 29.8563V30H26V29.8563C26 27.7125 27.2312 25.8125 28.7062 24.2563C30.75 22.1063 32 19.2 32 16C32 9.375 26.625 4 20 4C13.375 4 8 9.375 8 16ZM12 15.5C12 11.3562 15.3562 8 19.5 8C20.3313 8 21 8.66875 21 9.5C21 10.3313 20.3313 11 19.5 11C17.0125 11 15 13.0125 15 15.5C15 16.3313 14.3313 17 13.5 17C12.6687 17 12 16.3313 12 15.5Z" fill="#0F8A8D"/>
<path d="M3.66875 5.65623C2.925 5.28748 2.025 5.58748 1.65625 6.32498C1.2875 7.06248 1.5875 7.96873 2.33125 8.34373L4.33125 9.34373C5.075 9.71248 5.975 9.41248 6.34375 8.67498C6.7125 7.93748 6.4125 7.03123 5.675 6.66248L3.675 5.66248L3.66875 5.65623ZM37.6688 8.33748C38.4125 7.96873 38.7125 7.06873 38.3375 6.32498C37.9625 5.58123 37.0688 5.28123 36.325 5.65623L34.325 6.65623C33.5813 7.02498 33.2812 7.92498 33.6562 8.66873C34.0312 9.41248 34.925 9.71248 35.6688 9.33748L37.6688 8.33748ZM1.5 14.5C0.66875 14.5 0 15.1687 0 16C0 16.8312 0.66875 17.5 1.5 17.5H3.5C4.33125 17.5 5 16.8312 5 16C5 15.1687 4.33125 14.5 3.5 14.5H1.5ZM36.5 14.5C35.6687 14.5 35 15.1687 35 16C35 16.8312 35.6687 17.5 36.5 17.5H38.5C39.3313 17.5 40 16.8312 40 16C40 15.1687 39.3313 14.5 38.5 14.5H36.5ZM5.66875 25.3437C6.4125 24.975 6.7125 24.075 6.3375 23.3312C5.9625 22.5875 5.06875 22.2875 4.325 22.6625L2.325 23.6625C1.58125 24.0312 1.28125 24.9312 1.65625 25.675C2.03125 26.4187 2.925 26.7187 3.66875 26.3437L5.66875 25.3437ZM35.6688 22.6625C34.925 22.2937 34.025 22.5937 33.6562 23.3312C33.2875 24.0687 33.5875 24.975 34.325 25.3437L36.325 26.3437C37.0688 26.7125 37.9688 26.4125 38.3375 25.675C38.7063 24.9375 38.4063 24.0312 37.6688 23.6625L35.6688 22.6625ZM26 30H14V32C14 34.7625 16.2375 37 19 37H21C23.7625 37 26 34.7625 26 32V30Z" fill="#0F8A8D"/>
</svg>
