<svg width="40" height="40" viewBox="0 0 40 40" fill="none" xmlns="http://www.w3.org/2000/svg">
<path opacity="0.4" d="M9 18H31V30C31 30.55 30.55 31 30 31H10C9.45 31 9 30.55 9 30V18Z" fill="#0F8A8D"/>
<path d="M13.5 4C14.3313 4 15 4.66875 15 5.5V8H25V5.5C25 4.66875 25.6687 4 26.5 4C27.3313 4 28 4.66875 28 5.5V8H30C32.2062 8 34 9.79375 34 12V30C34 32.2062 32.2062 34 30 34H10C7.79375 34 6 32.2062 6 30V12C6 9.79375 7.79375 8 10 8H12V5.5C12 4.66875 12.6687 4 13.5 4ZM13.5 11H10C9.45 11 9 11.45 9 12V15H31V12C31 11.45 30.55 11 30 11H13.5ZM9 18V30C9 30.55 9.45 31 10 31H30C30.55 31 31 30.55 31 30V18H9Z" fill="#0F8A8D"/>
</svg>
