<svg width="28" height="28" viewBox="0 0 28 28" fill="none" xmlns="http://www.w3.org/2000/svg">
<path opacity="0.4" d="M6.30005 12.6H21.7V21C21.7 21.385 21.385 21.7 21 21.7H7.00005C6.61505 21.7 6.30005 21.385 6.30005 21V12.6Z" fill="#0F8A8D"/>
<path d="M9.44995 2.80005C10.0318 2.80005 10.5 3.26817 10.5 3.85005V5.60005H17.4999V3.85005C17.4999 3.26817 17.9681 2.80005 18.5499 2.80005C19.1318 2.80005 19.5999 3.26817 19.5999 3.85005V5.60005H20.9999C22.5443 5.60005 23.7999 6.85567 23.7999 8.40005V21C23.7999 22.5444 22.5443 23.8 20.9999 23.8H6.99995C5.45558 23.8 4.19995 22.5444 4.19995 21V8.40005C4.19995 6.85567 5.45558 5.60005 6.99995 5.60005H8.39995V3.85005C8.39995 3.26817 8.86808 2.80005 9.44995 2.80005ZM9.44995 7.70005H6.99995C6.61495 7.70005 6.29995 8.01505 6.29995 8.40005V10.5H21.6999V8.40005C21.6999 8.01505 21.3849 7.70005 20.9999 7.70005H9.44995ZM6.29995 12.6V21C6.29995 21.385 6.61495 21.7 6.99995 21.7H20.9999C21.3849 21.7 21.6999 21.385 21.6999 21V12.6H6.29995Z" fill="#0F8A8D"/>
</svg>
