<svg width="40" height="40" viewBox="0 0 40 40" fill="none" xmlns="http://www.w3.org/2000/svg">
<path opacity="0.4" d="M3 34.2875C3 35.2312 3.76875 36 4.7125 36H27.2812C28.225 36 28.9937 35.2312 28.9937 34.2875C28.9937 29.85 26.1812 26.0687 22.2437 24.625V26.9625C23.7 27.475 24.7437 28.8687 24.7437 30.5V32.5C24.7437 33.1875 24.1812 33.75 23.4937 33.75C22.8062 33.75 22.2437 33.1875 22.2437 32.5V30.5C22.2437 29.8125 21.6812 29.25 20.9937 29.25C20.3062 29.25 19.7437 29.8125 19.7437 30.5V32.5C19.7437 33.1875 19.1812 33.75 18.4937 33.75C17.8062 33.75 17.2437 33.1875 17.2437 32.5V30.5C17.2437 28.8687 18.2875 27.4812 19.7437 26.9625V24.05C19.4062 24.0187 19.0562 24 18.7062 24H13.275C12.925 24 12.5813 24.0187 12.2375 24.05V28.2687C13.2688 28.7437 13.9875 29.7875 13.9875 30.9937C13.9875 32.65 12.6438 33.9937 10.9875 33.9937C9.33125 33.9937 7.9875 32.65 7.9875 30.9937C7.9875 29.7812 8.70625 28.7375 9.7375 28.2687V24.6187C5.8125 26.0625 3 29.85 3 34.2875ZM8.5 12C8.5 16.1437 11.8562 19.5 16 19.5C17.95 19.5 19.7313 18.7562 21.0688 17.5312C19.8 16.4312 19 14.8125 19 13V7C19 6.3875 19.0938 5.8 19.2625 5.24375C18.275 4.76875 17.1688 4.5 16 4.5C11.8562 4.5 8.5 7.85625 8.5 12Z" fill="#0F8A8D"/>
<path d="M25 4C23.3438 4 22 5.34375 22 7V13C22 14.6562 23.3438 16 25 16H26V18.5875C26 19.4812 27.075 19.925 27.7062 19.2938L31 16H35C36.6562 16 38 14.6562 38 13V7C38 5.34375 36.6562 4 35 4H25Z" fill="#0F8A8D"/>
</svg>
