<svg width="30" height="24" viewBox="0 0 30 24" fill="none" xmlns="http://www.w3.org/2000/svg">
<g clip-path="url(#clip0_2107_4510)">
<path opacity="0.4" d="M7.875 13.0219V18.9422C9.79688 21.1219 12.6141 22.4953 15.75 22.4953C19.6594 22.4953 23.0672 20.3625 24.8766 17.1938C23.8266 17.0156 22.9219 16.4016 22.3594 15.5438C21.0938 17.8969 18.6094 19.4953 15.75 19.4953C11.8828 19.4953 8.7 16.5703 8.29219 12.8109C8.15625 12.8859 8.01563 12.9516 7.875 13.0172V13.0219ZM9.75938 11.6719C9.75469 11.7797 9.75 11.8875 9.75 11.9953C9.75 15.3094 12.4359 17.9953 15.75 17.9953C19.0641 17.9953 21.75 15.3094 21.75 11.9953C21.75 8.68125 19.0641 5.99531 15.75 5.99531C13.9547 5.99531 12.3469 6.78281 11.2453 8.02969C11.1984 9.43125 10.6453 10.7063 9.75469 11.6719H9.75938ZM10.275 3.0375L11.0109 6.1875C12.3047 5.13281 13.95 4.5 15.75 4.5C18.2016 4.5 20.3813 5.67656 21.75 7.5C21.75 6.10781 22.0125 4.9125 22.4297 3.89531C20.6156 2.4 18.2906 1.5 15.75 1.5C13.7438 1.5 11.8688 2.0625 10.2703 3.04219L10.275 3.0375Z" fill="#0F8A8D"/>
<path d="M2.25 1.10266C2.24062 0.915165 2.09531 0.765165 1.90781 0.751102C1.72031 0.73704 1.55156 0.858915 1.50938 1.03704L0.0890625 7.07454C0.028125 7.32766 0 7.59017 0 7.85267C0 9.72298 1.50938 11.237 3.375 11.2511V22.1261C3.375 22.7495 3.87656 23.2511 4.5 23.2511C5.12344 23.2511 5.625 22.7495 5.625 22.1261V11.2511C7.49062 11.237 9 9.72298 9 7.85267C9 7.59017 8.97188 7.32766 8.91094 7.07454L7.49063 1.04173C7.44844 0.858915 7.27969 0.73704 7.09219 0.75579C6.90469 0.77454 6.75938 0.919852 6.75 1.10735L6.39375 7.13079H5.58281L4.87031 1.0886C4.84688 0.901102 4.6875 0.75579 4.5 0.75579C4.3125 0.75579 4.14844 0.896415 4.12969 1.0886L3.41719 7.1261H2.60156L2.25 1.10266ZM24 7.5011V13.5011C24 14.3308 24.6703 15.0011 25.5 15.0011H27.75V22.1261C27.75 22.7495 28.2516 23.2511 28.875 23.2511C29.4984 23.2511 30 22.7495 30 22.1261V1.73079C30 1.19173 29.5641 0.751102 29.0203 0.751102C28.9219 0.751102 28.8281 0.765165 28.7344 0.797977C27.9422 1.0886 23.9953 2.7761 23.9953 7.5011H24Z" fill="#0F8A8D"/>
</g>
<defs>
<clipPath id="clip0_2107_4510">
<rect width="30" height="24" fill="white"/>
</clipPath>
</defs>
</svg>
