<svg width="20" height="20" viewBox="0 0 20 20" fill="none" xmlns="http://www.w3.org/2000/svg">
<path d="M11.475 14.9062C10.8031 16.2719 10.1813 16.5 10 16.5C9.81875 16.5 9.19687 16.2719 8.525 14.9062C7.99375 13.8281 7.6125 12.3563 7.52187 10.75H12.4781C12.3844 12.3594 12.0031 13.8312 11.475 14.9062ZM12.4781 9.25H7.52187C7.61562 7.64062 7.99687 6.16875 8.525 5.09375C9.19687 3.72812 9.81875 3.5 10 3.5C10.1813 3.5 10.8031 3.72812 11.475 5.09375C12.0063 6.17188 12.3875 7.64375 12.4781 9.25ZM13.9812 10.75H16.4562C16.1875 13.0812 14.6844 15.0406 12.6187 15.95C13.3687 14.6125 13.8781 12.75 13.9812 10.75ZM16.4562 9.25H13.9812C13.8781 7.25 13.3687 5.3875 12.6187 4.05C14.6844 4.9625 16.1875 6.91875 16.4562 9.25ZM6.01875 9.25H3.54375C3.8125 6.91875 5.31562 4.95938 7.38125 4.05C6.63125 5.3875 6.12188 7.25 6.01875 9.25ZM3.54375 10.75H6.01875C6.12188 12.75 6.63125 14.6125 7.38125 15.95C5.31562 15.0375 3.8125 13.0812 3.54375 10.75ZM10 18C14.4187 18 18 14.4187 18 10C18 5.58125 14.4187 2 10 2C5.58125 2 2 5.58125 2 10C2 14.4187 5.58125 18 10 18Z" fill="#239496"/>
</svg>
