<svg width="40" height="40" viewBox="0 0 40 40" fill="none" xmlns="http://www.w3.org/2000/svg">
<path opacity="0.4" d="M20.5875 10.5874C19.8063 11.3687 19.8063 12.6374 20.5875 13.4187C21.3688 14.1999 22.6375 14.1999 23.4188 13.4187L26 10.8312V33.9999C26 35.1062 26.8938 35.9999 28 35.9999C29.1063 35.9999 30 35.1062 30 33.9999V10.8312L32.5875 13.4187C33.3688 14.1999 34.6375 14.1999 35.4188 13.4187C36.2 12.6374 36.2 11.3687 35.4188 10.5874L29.4188 4.5874C28.6375 3.80615 27.3688 3.80615 26.5875 4.5874L20.5875 10.5874Z" fill="#0F8A8D"/>
<path d="M10.5875 35.4125C11.3688 36.1937 12.6375 36.1937 13.4188 35.4125L19.4188 29.4125C20.2 28.6313 20.2 27.3625 19.4188 26.5812C18.6375 25.8 17.3688 25.8 16.5875 26.5812L14 29.1688V6C14 4.89375 13.1063 4 12 4C10.8938 4 10 4.89375 10 6V29.1688L7.41255 26.5812C6.6313 25.8 5.36255 25.8 4.5813 26.5812C3.80005 27.3625 3.80005 28.6313 4.5813 29.4125L10.5813 35.4125H10.5875Z" fill="#0F8A8D"/>
</svg>
