<svg width="20" height="20" viewBox="0 0 20 20" fill="none" xmlns="http://www.w3.org/2000/svg">
<path d="M10 20C4.47656 20 0 15.5234 0 10C0 4.47656 4.47656 0 10 0C15.5234 0 20 4.47656 20 10C20 15.5234 15.5234 20 10 20ZM10 12.5C9.30859 12.5 8.75 13.0586 8.75 13.75C8.75 14.4414 9.30859 15 10 15C10.6914 15 11.25 14.4414 11.25 13.75C11.25 13.0586 10.6914 12.5 10 12.5ZM10 5C9.28906 5 8.72266 5.60547 8.77344 6.31641L9.0625 10.3789C9.09766 10.8711 9.50781 11.25 9.99609 11.25C10.4883 11.25 10.8945 10.8711 10.9297 10.3789L11.2188 6.31641C11.2695 5.60547 10.707 5 9.99219 5H10Z" fill="#239496"/>
</svg>
