<svg width="21" height="24" viewBox="0 0 21 24" fill="none" xmlns="http://www.w3.org/2000/svg">
<path d="M7.35226 4.29101C7.74807 4.11216 9.63287 3.3685 10.5753 3.00138C12.9454 3.67444 15.669 4.66755 17.8695 5.67007C17.7564 8.77648 18.6281 12.5842 17.092 15.3988C15.0988 18.1004 13.4402 19.8937 10.3538 20.8632C2.00883 17.2956 3.30935 13.9868 3.0549 5.77362C4.43552 5.36884 5.97635 4.91229 7.35697 4.29101H7.35226ZM11.414 0.106769C9.84963 -0.425086 7.30514 1.1846 6.113 1.54231C4.61458 2.22478 2.8193 2.68132 1.15124 3.19435C-0.535657 3.83446 0.147585 5.68419 0.0863291 7.01148V7.00206C-0.295344 15.5635 0.849676 20.4632 9.76481 23.8849C10.1842 24.0591 10.6648 24.0356 11.0653 23.8143C14.8067 22.7083 17.4124 20.1714 19.5281 17.1685C21.4082 14.3821 20.9606 10.8239 20.937 7.78337C20.692 6.47491 21.4129 4.57341 20.2302 3.58972C18.5197 2.39892 16.9129 2.07416 15.1459 1.33992C14.1423 0.888079 12.5119 0.412704 11.4093 0.106769H11.414ZM15.7915 8.39053C15.2025 7.80691 14.2459 7.8069 13.6616 8.39995C12.4459 9.72253 11.1313 10.7298 9.87319 11.9723C9.68471 12.1559 9.47266 12.3677 9.28418 12.5418C8.83183 12.1041 8.39832 11.6993 7.98838 11.3087C6.55121 9.96257 4.49206 12.1371 5.91509 13.4973C6.69729 14.2409 8.17215 16.3119 9.49151 16.0577C10.0428 15.9401 10.2643 15.6765 10.6177 15.3847C11.136 14.9564 11.5695 14.5328 12.0077 14.0997C13.28 12.8619 14.5664 11.8641 15.8056 10.518C16.3899 9.92962 16.3899 8.97416 15.7962 8.39053H15.7915Z" fill="#0F8A8D"/>
</svg>
