<svg width="28" height="28" viewBox="0 0 28 28" fill="none" xmlns="http://www.w3.org/2000/svg">
<path opacity="0.4" d="M3.00998 21.2188C2.71685 21.7613 2.72998 22.4175 3.04498 22.9469C3.35998 23.4763 3.9331 23.8 4.54998 23.8H23.45C24.0669 23.8 24.6356 23.4763 24.955 22.9469C25.2744 22.4175 25.2831 21.7613 24.99 21.2188L15.54 3.7188C15.2337 3.15442 14.6431 2.80005 14 2.80005C13.3569 2.80005 12.7662 3.15442 12.46 3.7188L3.00998 21.2188ZM15.4 19.6C15.4 20.3744 14.7744 21 14 21C13.2256 21 12.6 20.3744 12.6 19.6C12.6 18.8257 13.2256 18.2 14 18.2C14.7744 18.2 15.4 18.8257 15.4 19.6ZM12.6262 11.2744C12.5694 10.4782 13.1994 9.80005 14 9.80005C14.8006 9.80005 15.4306 10.4782 15.3737 11.2744L15.05 15.8244C15.0062 16.3757 14.5512 16.8 14 16.8C13.4487 16.8 12.9937 16.3757 12.9544 15.8244L12.6306 11.2744H12.6262Z" fill="#0F8A8D"/>
<path d="M14 21C13.2256 21 12.6 20.3744 12.6 19.6C12.6 18.8257 13.2256 18.2 14 18.2C14.7744 18.2 15.4 18.8257 15.4 19.6C15.4 20.3744 14.7744 21 14 21ZM14 9.80005C14.8006 9.80005 15.4306 10.4782 15.3737 11.2744L15.05 15.8244C15.0062 16.3757 14.5512 16.8 14 16.8C13.4487 16.8 12.9937 16.3757 12.9544 15.8244L12.6306 11.2744C12.5694 10.4782 13.1994 9.80005 14 9.80005Z" fill="#0F8A8D"/>
</svg>
