<svg width="1480" height="874" viewBox="0 0 1480 874" fill="none" xmlns="http://www.w3.org/2000/svg">
<mask id="mask0_2011_2493" style="mask-type:alpha" maskUnits="userSpaceOnUse" x="-40" y="-108" width="1560" height="982">
<rect x="-40" y="-108" width="1560" height="982" fill="url(#paint0_radial_2011_2493)"/>
</mask>
<g mask="url(#mask0_2011_2493)">
<g opacity="0.4">
<rect x="922.744" y="587.718" width="73.4648" height="73.4648" fill="#B3D4C8" fill-opacity="0.3"/>
<rect x="189.014" y="661.183" width="73.4648" height="73.4648" fill="#B3D4C8"/>
<rect x="262.479" y="73.4648" width="73.4648" height="73.4648" fill="#B3D4C8" fill-opacity="0.3"/>
<rect x="335.944" y="440.789" width="73.4648" height="73.4648" fill="#B3D4C8" fill-opacity="0.3"/>
<rect x="1144.06" y="146.93" width="73.4648" height="73.4648" fill="#B3D4C8" fill-opacity="0.3"/>
<rect x="703.268" y="220.394" width="73.4648" height="73.4648" fill="#B3D4C8" fill-opacity="0.3"/>
<line x1="188.514" y1="1304" x2="188.514" y2="2.18556e-08" stroke="#B3D4C8"/>
<line x1="261.979" y1="1304" x2="261.979" y2="2.18556e-08" stroke="#B3D4C8"/>
<line x1="335.444" y1="1304" x2="335.444" y2="2.18556e-08" stroke="#B3D4C8"/>
<line x1="408.908" y1="1304" x2="408.908" y2="2.18556e-08" stroke="#B3D4C8"/>
<line x1="482.373" y1="1304" x2="482.373" y2="2.18556e-08" stroke="#B3D4C8"/>
<line x1="555.838" y1="1304" x2="555.838" y2="2.18556e-08" stroke="#B3D4C8"/>
<line x1="629.303" y1="1304" x2="629.303" y2="2.18556e-08" stroke="#B3D4C8"/>
<line x1="702.768" y1="1304" x2="702.768" y2="2.18556e-08" stroke="#B3D4C8"/>
<line x1="776.232" y1="1304" x2="776.232" y2="2.18556e-08" stroke="#B3D4C8"/>
<line x1="849.697" y1="1304" x2="849.697" y2="2.18556e-08" stroke="#B3D4C8"/>
<line x1="923.162" y1="1304" x2="923.162" y2="2.18556e-08" stroke="#B3D4C8"/>
<line x1="996.627" y1="1304" x2="996.627" y2="2.18556e-08" stroke="#B3D4C8"/>
<line x1="1070.09" y1="1304" x2="1070.09" y2="2.18556e-08" stroke="#B3D4C8"/>
<line x1="1143.56" y1="1304" x2="1143.56" y2="2.18556e-08" stroke="#B3D4C8"/>
<line x1="1217.02" y1="1304" x2="1217.02" y2="2.18556e-08" stroke="#B3D4C8"/>
<line x1="1290.49" y1="1304" x2="1290.49" y2="2.18556e-08" stroke="#B3D4C8"/>
<line x1="88" y1="-0.499878" x2="1392" y2="-0.499992" stroke="#B3D4C8"/>
<line x1="88" y1="72.9649" x2="1392" y2="72.9648" stroke="#B3D4C8"/>
<line x1="88" y1="146.43" x2="1392" y2="146.43" stroke="#B3D4C8"/>
<line x1="88" y1="219.895" x2="1392" y2="219.895" stroke="#B3D4C8"/>
<line x1="88" y1="293.36" x2="1392" y2="293.359" stroke="#B3D4C8"/>
<line x1="88" y1="366.824" x2="1392" y2="366.824" stroke="#B3D4C8"/>
<line x1="88" y1="440.29" x2="1392" y2="440.289" stroke="#B3D4C8"/>
<line x1="88" y1="513.754" x2="1392" y2="513.754" stroke="#B3D4C8"/>
<line x1="88" y1="587.219" x2="1392" y2="587.219" stroke="#B3D4C8"/>
<line x1="88" y1="660.684" x2="1392" y2="660.684" stroke="#B3D4C8"/>
<line x1="88" y1="734.149" x2="1392" y2="734.149" stroke="#B3D4C8"/>
<line x1="88" y1="807.5" x2="1392" y2="807.5" stroke="#B3D4C8"/>
</g>
</g>
<defs>
<radialGradient id="paint0_radial_2011_2493" cx="0" cy="0" r="1" gradientUnits="userSpaceOnUse" gradientTransform="translate(740 139.5) rotate(90) scale(960 759.145)">
<stop offset="0.35" stop-color="#D9D9D9"/>
<stop offset="1" stop-color="#737373" stop-opacity="0"/>
</radialGradient>
</defs>
</svg>
